<svg width="1770" height="1771" viewBox="0 0 1770 1771" fill="none" xmlns="http://www.w3.org/2000/svg">
<circle cx="885.5" cy="885.5" r="24.5" fill="#FF0000"/>
<circle cx="884" cy="885" r="592" stroke="#C0C0C0" stroke-width="10"/>
<path d="M883.586 839.973C884.367 840.754 885.633 840.754 886.414 839.973L899.142 827.245C899.923 826.464 899.923 825.198 899.142 824.417C898.361 823.636 897.095 823.636 896.314 824.417L885 835.731L873.686 824.417C872.905 823.636 871.639 823.636 870.858 824.417C870.077 825.198 870.077 826.464 870.858 827.245L883.586 839.973ZM886.414 327.086C885.633 326.305 884.367 326.305 883.586 327.086L870.858 339.814C870.077 340.595 870.077 341.861 870.858 342.642C871.639 343.423 872.905 343.423 873.686 342.642L885 331.328L896.314 342.642C897.095 343.423 898.361 343.423 899.142 342.642C899.923 341.861 899.923 340.595 899.142 339.814L886.414 327.086ZM887 838.559V830.589H883V838.559H887ZM887 814.65V798.711H883V814.65H887ZM887 782.771V766.832H883V782.771H887ZM887 750.893V734.953H883V750.893H887ZM887 719.014V703.075H883V719.014H887ZM887 687.135V671.196H883V687.135H887ZM887 655.257V639.317H883V655.257H887ZM887 623.378V607.439H883V623.378H887ZM887 591.499V575.56H883V591.499H887ZM887 559.62V543.681H883V559.62H887ZM887 527.742V511.802H883V527.742H887ZM887 495.863V479.924H883V495.863H887ZM887 463.984V448.045H883V463.984H887ZM887 432.106V416.166H883V432.106H887ZM887 400.227V384.288H883V400.227H887ZM887 368.348V352.409H883V368.348H887ZM887 336.469V328.5H883V336.469H887ZM883.586 839.973C884.367 840.754 885.633 840.754 886.414 839.973L899.142 827.245C899.923 826.464 899.923 825.198 899.142 824.417C898.361 823.636 897.095 823.636 896.314 824.417L885 835.731L873.686 824.417C872.905 823.636 871.639 823.636 870.858 824.417C870.077 825.198 870.077 826.464 870.858 827.245L883.586 839.973ZM886.414 327.086C885.633 326.305 884.367 326.305 883.586 327.086L870.858 339.814C870.077 340.595 870.077 341.861 870.858 342.642C871.639 343.423 872.905 343.423 873.686 342.642L885 331.328L896.314 342.642C897.095 343.423 898.361 343.423 899.142 342.642C899.923 341.861 899.923 340.595 899.142 339.814L886.414 327.086ZM887 838.559V830.589H883V838.559H887ZM887 814.65V798.711H883V814.65H887ZM887 782.771V766.832H883V782.771H887ZM887 750.893V734.953H883V750.893H887ZM887 719.014V703.075H883V719.014H887ZM887 687.135V671.196H883V687.135H887ZM887 655.257V639.317H883V655.257H887ZM887 623.378V607.439H883V623.378H887ZM887 591.499V575.56H883V591.499H887ZM887 559.62V543.681H883V559.62H887ZM887 527.742V511.802H883V527.742H887ZM887 495.863V479.924H883V495.863H887ZM887 463.984V448.045H883V463.984H887ZM887 432.106V416.166H883V432.106H887ZM887 400.227V384.288H883V400.227H887ZM887 368.348V352.409H883V368.348H887ZM887 336.469V328.5H883V336.469H887Z" fill="#B0B0B0"/>
<path d="M883.586 1443.91C884.367 1444.7 885.633 1444.7 886.414 1443.91L899.142 1431.19C899.923 1430.41 899.923 1429.14 899.142 1428.36C898.361 1427.58 897.095 1427.58 896.314 1428.36L885 1439.67L873.686 1428.36C872.905 1427.58 871.639 1427.58 870.858 1428.36C870.077 1429.14 870.077 1430.41 870.858 1431.19L883.586 1443.91ZM886.414 931.027C885.633 930.246 884.367 930.246 883.586 931.027L870.858 943.755C870.077 944.536 870.077 945.802 870.858 946.583C871.639 947.364 872.905 947.364 873.686 946.583L885 935.269L896.314 946.583C897.095 947.364 898.361 947.364 899.142 946.583C899.923 945.802 899.923 944.536 899.142 943.755L886.414 931.027ZM887 1442.5V1434.53H883V1442.5H887ZM887 1418.59V1402.65H883V1418.59H887ZM887 1386.71V1370.77H883V1386.71H887ZM887 1354.83V1338.89H883V1354.83H887ZM887 1322.95V1307.02H883V1322.95H887ZM887 1291.08V1275.14H883V1291.08H887ZM887 1259.2V1243.26H883V1259.2H887ZM887 1227.32V1211.38H883V1227.32H887ZM887 1195.44V1179.5H883V1195.44H887ZM887 1163.56V1147.62H883V1163.56H887ZM887 1131.68V1115.74H883V1131.68H887ZM887 1099.8V1083.86H883V1099.8H887ZM887 1067.93V1051.99H883V1067.93H887ZM887 1036.05V1020.11H883V1036.05H887ZM887 1004.17V988.228H883V1004.17H887ZM887 972.289V956.35H883V972.289H887ZM887 940.41V932.441H883V940.41H887ZM883.586 1443.91C884.367 1444.7 885.633 1444.7 886.414 1443.91L899.142 1431.19C899.923 1430.41 899.923 1429.14 899.142 1428.36C898.361 1427.58 897.095 1427.58 896.314 1428.36L885 1439.67L873.686 1428.36C872.905 1427.58 871.639 1427.58 870.858 1428.36C870.077 1429.14 870.077 1430.41 870.858 1431.19L883.586 1443.91ZM886.414 931.027C885.633 930.246 884.367 930.246 883.586 931.027L870.858 943.755C870.077 944.536 870.077 945.802 870.858 946.583C871.639 947.364 872.905 947.364 873.686 946.583L885 935.269L896.314 946.583C897.095 947.364 898.361 947.364 899.142 946.583C899.923 945.802 899.923 944.536 899.142 943.755L886.414 931.027ZM887 1442.5V1434.53H883V1442.5H887ZM887 1418.59V1402.65H883V1418.59H887ZM887 1386.71V1370.77H883V1386.71H887ZM887 1354.83V1338.89H883V1354.83H887ZM887 1322.95V1307.02H883V1322.95H887ZM887 1291.08V1275.14H883V1291.08H887ZM887 1259.2V1243.26H883V1259.2H887ZM887 1227.32V1211.38H883V1227.32H887ZM887 1195.44V1179.5H883V1195.44H887ZM887 1163.56V1147.62H883V1163.56H887ZM887 1131.68V1115.74H883V1131.68H887ZM887 1099.8V1083.86H883V1099.8H887ZM887 1067.93V1051.99H883V1067.93H887ZM887 1036.05V1020.11H883V1036.05H887ZM887 1004.17V988.228H883V1004.17H887ZM887 972.289V956.35H883V972.289H887ZM887 940.41V932.441H883V940.41H887Z" fill="#B0B0B0"/>
<path d="M839.473 886.914C840.254 886.133 840.254 884.867 839.473 884.086L826.745 871.358C825.964 870.577 824.698 870.577 823.917 871.358C823.136 872.139 823.136 873.405 823.917 874.186L835.231 885.5L823.917 896.814C823.136 897.595 823.136 898.861 823.917 899.642C824.698 900.423 825.964 900.423 826.745 899.642L839.473 886.914ZM326.586 884.086C325.805 884.867 325.805 886.133 326.586 886.914L339.314 899.642C340.095 900.423 341.361 900.423 342.142 899.642C342.923 898.861 342.923 897.595 342.142 896.814L330.828 885.5L342.142 874.186C342.923 873.405 342.923 872.139 342.142 871.358C341.361 870.577 340.095 870.577 339.314 871.358L326.586 884.086ZM838.059 883.5L830.089 883.5L830.089 887.5L838.059 887.5L838.059 883.5ZM814.15 883.5L798.211 883.5L798.211 887.5L814.15 887.5L814.15 883.5ZM782.271 883.5L766.332 883.5L766.332 887.5L782.271 887.5L782.271 883.5ZM750.393 883.5L734.453 883.5L734.453 887.5L750.393 887.5L750.393 883.5ZM718.514 883.5L702.575 883.5L702.575 887.5L718.514 887.5L718.514 883.5ZM686.635 883.5L670.696 883.5L670.696 887.5L686.635 887.5L686.635 883.5ZM654.757 883.5L638.817 883.5L638.817 887.5L654.757 887.5L654.757 883.5ZM622.878 883.5L606.939 883.5L606.939 887.5L622.878 887.5L622.878 883.5ZM590.999 883.5L575.06 883.5L575.06 887.5L590.999 887.5L590.999 883.5ZM559.12 883.5L543.181 883.5L543.181 887.5L559.12 887.5L559.12 883.5ZM527.242 883.5L511.302 883.5L511.302 887.5L527.242 887.5L527.242 883.5ZM495.363 883.5L479.424 883.5L479.424 887.5L495.363 887.5L495.363 883.5ZM463.484 883.5L447.545 883.5L447.545 887.5L463.484 887.5L463.484 883.5ZM431.606 883.5L415.666 883.5L415.666 887.5L431.606 887.5L431.606 883.5ZM399.727 883.5L383.788 883.5L383.788 887.5L399.727 887.5L399.727 883.5ZM367.848 883.5L351.909 883.5L351.909 887.5L367.848 887.5L367.848 883.5ZM335.969 883.5L328 883.5L328 887.5L335.969 887.5L335.969 883.5ZM839.473 886.914C840.254 886.133 840.254 884.867 839.473 884.086L826.745 871.358C825.964 870.577 824.698 870.577 823.917 871.358C823.136 872.139 823.136 873.405 823.917 874.186L835.231 885.5L823.917 896.814C823.136 897.595 823.136 898.861 823.917 899.642C824.698 900.423 825.964 900.423 826.745 899.642L839.473 886.914ZM326.586 884.086C325.805 884.867 325.805 886.133 326.586 886.914L339.314 899.642C340.095 900.423 341.361 900.423 342.142 899.642C342.923 898.861 342.923 897.595 342.142 896.814L330.828 885.5L342.142 874.186C342.923 873.405 342.923 872.139 342.142 871.358C341.361 870.577 340.095 870.577 339.314 871.358L326.586 884.086ZM838.059 883.5L830.089 883.5L830.089 887.5L838.059 887.5L838.059 883.5ZM814.15 883.5L798.211 883.5L798.211 887.5L814.15 887.5L814.15 883.5ZM782.271 883.5L766.332 883.5L766.332 887.5L782.271 887.5L782.271 883.5ZM750.393 883.5L734.453 883.5L734.453 887.5L750.393 887.5L750.393 883.5ZM718.514 883.5L702.575 883.5L702.575 887.5L718.514 887.5L718.514 883.5ZM686.635 883.5L670.696 883.5L670.696 887.5L686.635 887.5L686.635 883.5ZM654.757 883.5L638.817 883.5L638.817 887.5L654.757 887.5L654.757 883.5ZM622.878 883.5L606.939 883.5L606.939 887.5L622.878 887.5L622.878 883.5ZM590.999 883.5L575.06 883.5L575.06 887.5L590.999 887.5L590.999 883.5ZM559.12 883.5L543.181 883.5L543.181 887.5L559.12 887.5L559.12 883.5ZM527.242 883.5L511.302 883.5L511.302 887.5L527.242 887.5L527.242 883.5ZM495.363 883.5L479.424 883.5L479.424 887.5L495.363 887.5L495.363 883.5ZM463.484 883.5L447.545 883.5L447.545 887.5L463.484 887.5L463.484 883.5ZM431.606 883.5L415.666 883.5L415.666 887.5L431.606 887.5L431.606 883.5ZM399.727 883.5L383.788 883.5L383.788 887.5L399.727 887.5L399.727 883.5ZM367.848 883.5L351.909 883.5L351.909 887.5L367.848 887.5L367.848 883.5ZM335.969 883.5L328 883.5L328 887.5L335.969 887.5L335.969 883.5Z" fill="#B0B0B0"/>
<path d="M1443.41 886.914C1444.2 886.133 1444.2 884.867 1443.41 884.086L1430.69 871.358C1429.91 870.577 1428.64 870.577 1427.86 871.358C1427.08 872.139 1427.08 873.405 1427.86 874.186L1439.17 885.5L1427.86 896.814C1427.08 897.595 1427.08 898.861 1427.86 899.642C1428.64 900.423 1429.91 900.423 1430.69 899.642L1443.41 886.914ZM930.527 884.086C929.746 884.867 929.746 886.133 930.527 886.914L943.255 899.642C944.036 900.423 945.302 900.423 946.083 899.642C946.864 898.861 946.864 897.595 946.083 896.814L934.769 885.5L946.083 874.186C946.864 873.405 946.864 872.139 946.083 871.358C945.302 870.577 944.036 870.577 943.255 871.358L930.527 884.086ZM1442 883.5L1434.03 883.5L1434.03 887.5L1442 887.5L1442 883.5ZM1418.09 883.5L1402.15 883.5L1402.15 887.5L1418.09 887.5L1418.09 883.5ZM1386.21 883.5L1370.27 883.5L1370.27 887.5L1386.21 887.5L1386.21 883.5ZM1354.33 883.5L1338.39 883.5L1338.39 887.5L1354.33 887.5L1354.33 883.5ZM1322.45 883.5L1306.52 883.5L1306.52 887.5L1322.45 887.5L1322.45 883.5ZM1290.58 883.5L1274.64 883.5L1274.64 887.5L1290.58 887.5L1290.58 883.5ZM1258.7 883.5L1242.76 883.5L1242.76 887.5L1258.7 887.5L1258.7 883.5ZM1226.82 883.5L1210.88 883.5L1210.88 887.5L1226.82 887.5L1226.82 883.5ZM1194.94 883.5L1179 883.5L1179 887.5L1194.94 887.5L1194.94 883.5ZM1163.06 883.5L1147.12 883.5L1147.12 887.5L1163.06 887.5L1163.06 883.5ZM1131.18 883.5L1115.24 883.5L1115.24 887.5L1131.18 887.5L1131.18 883.5ZM1099.3 883.5L1083.36 883.5L1083.36 887.5L1099.3 887.5L1099.3 883.5ZM1067.43 883.5L1051.49 883.5L1051.49 887.5L1067.43 887.5L1067.43 883.5ZM1035.55 883.5L1019.61 883.5L1019.61 887.5L1035.55 887.5L1035.55 883.5ZM1003.67 883.5L987.728 883.5L987.728 887.5L1003.67 887.5L1003.67 883.5ZM971.789 883.5L955.85 883.5L955.85 887.5L971.789 887.5L971.789 883.5ZM939.91 883.5L931.941 883.5L931.941 887.5L939.91 887.5L939.91 883.5ZM1443.41 886.914C1444.2 886.133 1444.2 884.867 1443.41 884.086L1430.69 871.358C1429.91 870.577 1428.64 870.577 1427.86 871.358C1427.08 872.139 1427.08 873.405 1427.86 874.186L1439.17 885.5L1427.86 896.814C1427.08 897.595 1427.08 898.861 1427.86 899.642C1428.64 900.423 1429.91 900.423 1430.69 899.642L1443.41 886.914ZM930.527 884.086C929.746 884.867 929.746 886.133 930.527 886.914L943.255 899.642C944.036 900.423 945.302 900.423 946.083 899.642C946.864 898.861 946.864 897.595 946.083 896.814L934.769 885.5L946.083 874.186C946.864 873.405 946.864 872.139 946.083 871.358C945.302 870.577 944.036 870.577 943.255 871.358L930.527 884.086ZM1442 883.5L1434.03 883.5L1434.03 887.5L1442 887.5L1442 883.5ZM1418.09 883.5L1402.15 883.5L1402.15 887.5L1418.09 887.5L1418.09 883.5ZM1386.21 883.5L1370.27 883.5L1370.27 887.5L1386.21 887.5L1386.21 883.5ZM1354.33 883.5L1338.39 883.5L1338.39 887.5L1354.33 887.5L1354.33 883.5ZM1322.45 883.5L1306.52 883.5L1306.52 887.5L1322.45 887.5L1322.45 883.5ZM1290.58 883.5L1274.64 883.5L1274.64 887.5L1290.58 887.5L1290.58 883.5ZM1258.7 883.5L1242.76 883.5L1242.76 887.5L1258.7 887.5L1258.7 883.5ZM1226.82 883.5L1210.88 883.5L1210.88 887.5L1226.82 887.5L1226.82 883.5ZM1194.94 883.5L1179 883.5L1179 887.5L1194.94 887.5L1194.94 883.5ZM1163.06 883.5L1147.12 883.5L1147.12 887.5L1163.06 887.5L1163.06 883.5ZM1131.18 883.5L1115.24 883.5L1115.24 887.5L1131.18 887.5L1131.18 883.5ZM1099.3 883.5L1083.36 883.5L1083.36 887.5L1099.3 887.5L1099.3 883.5ZM1067.43 883.5L1051.49 883.5L1051.49 887.5L1067.43 887.5L1067.43 883.5ZM1035.55 883.5L1019.61 883.5L1019.61 887.5L1035.55 887.5L1035.55 883.5ZM1003.67 883.5L987.728 883.5L987.728 887.5L1003.67 887.5L1003.67 883.5ZM971.789 883.5L955.85 883.5L955.85 887.5L971.789 887.5L971.789 883.5ZM939.91 883.5L931.941 883.5L931.941 887.5L939.91 887.5L939.91 883.5Z" fill="#B0B0B0"/>
<path d="M853.808 918.692C853.808 917.588 852.912 916.692 851.808 916.692L833.808 916.692C832.703 916.692 831.808 917.588 831.808 918.692C831.808 919.797 832.703 920.692 833.808 920.692L849.808 920.692L849.808 936.692C849.808 937.797 850.703 938.692 851.808 938.692C852.912 938.692 853.808 937.797 853.808 936.692L853.808 918.692ZM489.142 1279.36C489.142 1280.46 490.037 1281.36 491.142 1281.36L509.142 1281.36C510.246 1281.36 511.142 1280.46 511.142 1279.36C511.142 1278.25 510.246 1277.36 509.142 1277.36L493.142 1277.36L493.142 1261.36C493.142 1260.25 492.246 1259.36 491.142 1259.36C490.037 1259.36 489.142 1260.25 489.142 1261.36L489.142 1279.36ZM850.394 917.278L844.758 922.913L847.587 925.742L853.222 920.106L850.394 917.278ZM833.487 934.184L822.217 945.455L825.045 948.283L836.316 937.013L833.487 934.184ZM810.946 956.726L799.675 967.997L802.503 970.825L813.774 959.554L810.946 956.726ZM788.404 979.267L777.133 990.538L779.962 993.367L791.233 982.096L788.404 979.267ZM765.862 1001.81L754.592 1013.08L757.42 1015.91L768.691 1004.64L765.862 1001.81ZM743.321 1024.35L732.05 1035.62L734.878 1038.45L746.149 1027.18L743.321 1024.35ZM720.779 1046.89L709.508 1058.16L712.337 1060.99L723.608 1049.72L720.779 1046.89ZM698.238 1069.43L686.967 1080.7L689.795 1083.53L701.066 1072.26L698.238 1069.43ZM675.696 1091.98L664.425 1103.25L667.254 1106.07L678.524 1094.8L675.696 1091.98ZM653.154 1114.52L641.883 1125.79L644.712 1128.62L655.983 1117.35L653.154 1114.52ZM630.613 1137.06L619.342 1148.33L622.17 1151.16L633.441 1139.89L630.613 1137.06ZM608.071 1159.6L596.8 1170.87L599.629 1173.7L610.899 1162.43L608.071 1159.6ZM585.529 1182.14L574.258 1193.41L577.087 1196.24L588.358 1184.97L585.529 1182.14ZM562.988 1204.68L551.717 1215.95L554.545 1218.78L565.816 1207.51L562.988 1204.68ZM540.446 1227.23L529.175 1238.5L532.004 1241.32L543.274 1230.05L540.446 1227.23ZM517.904 1249.77L506.634 1261.04L509.462 1263.87L520.733 1252.6L517.904 1249.77ZM495.363 1272.31L489.727 1277.94L492.556 1280.77L498.191 1275.14L495.363 1272.31ZM853.808 918.692C853.808 917.588 852.912 916.692 851.808 916.692L833.808 916.692C832.703 916.692 831.808 917.588 831.808 918.692C831.808 919.797 832.703 920.692 833.808 920.692L849.808 920.692L849.808 936.692C849.808 937.797 850.703 938.692 851.808 938.692C852.912 938.692 853.808 937.797 853.808 936.692L853.808 918.692ZM489.142 1279.36C489.142 1280.46 490.037 1281.36 491.142 1281.36L509.142 1281.36C510.246 1281.36 511.142 1280.46 511.142 1279.36C511.142 1278.25 510.246 1277.36 509.142 1277.36L493.142 1277.36L493.142 1261.36C493.142 1260.25 492.246 1259.36 491.142 1259.36C490.037 1259.36 489.142 1260.25 489.142 1261.36L489.142 1279.36ZM850.394 917.278L844.758 922.913L847.587 925.742L853.222 920.106L850.394 917.278ZM833.487 934.184L822.217 945.455L825.045 948.283L836.316 937.013L833.487 934.184ZM810.946 956.726L799.675 967.997L802.503 970.825L813.774 959.554L810.946 956.726ZM788.404 979.267L777.133 990.538L779.962 993.367L791.233 982.096L788.404 979.267ZM765.862 1001.81L754.592 1013.08L757.42 1015.91L768.691 1004.64L765.862 1001.81ZM743.321 1024.35L732.05 1035.62L734.878 1038.45L746.149 1027.18L743.321 1024.35ZM720.779 1046.89L709.508 1058.16L712.337 1060.99L723.608 1049.72L720.779 1046.89ZM698.238 1069.43L686.967 1080.7L689.795 1083.53L701.066 1072.26L698.238 1069.43ZM675.696 1091.98L664.425 1103.25L667.254 1106.07L678.524 1094.8L675.696 1091.98ZM653.154 1114.52L641.883 1125.79L644.712 1128.62L655.983 1117.35L653.154 1114.52ZM630.613 1137.06L619.342 1148.33L622.17 1151.16L633.441 1139.89L630.613 1137.06ZM608.071 1159.6L596.8 1170.87L599.629 1173.7L610.899 1162.43L608.071 1159.6ZM585.529 1182.14L574.258 1193.41L577.087 1196.24L588.358 1184.97L585.529 1182.14ZM562.988 1204.68L551.717 1215.95L554.545 1218.78L565.816 1207.51L562.988 1204.68ZM540.446 1227.23L529.175 1238.5L532.004 1241.32L543.274 1230.05L540.446 1227.23ZM517.904 1249.77L506.634 1261.04L509.462 1263.87L520.733 1252.6L517.904 1249.77ZM495.363 1272.31L489.727 1277.94L492.556 1280.77L498.191 1275.14L495.363 1272.31Z" fill="#B0B0B0"/>
<path d="M1280.86 491.642C1280.86 490.537 1279.96 489.642 1278.86 489.642L1260.86 489.642C1259.75 489.642 1258.86 490.537 1258.86 491.642C1258.86 492.746 1259.75 493.642 1260.86 493.642L1276.86 493.642L1276.86 509.642C1276.86 510.746 1277.75 511.642 1278.86 511.642C1279.96 511.642 1280.86 510.746 1280.86 509.642L1280.86 491.642ZM916.192 852.308C916.192 853.412 917.088 854.308 918.192 854.308L936.192 854.308C937.297 854.308 938.192 853.412 938.192 852.308C938.192 851.203 937.297 850.308 936.192 850.308L920.192 850.308L920.192 834.308C920.192 833.203 919.297 832.308 918.192 832.308C917.088 832.308 916.192 833.203 916.192 834.308L916.192 852.308ZM1277.44 490.227L1271.81 495.863L1274.64 498.691L1280.27 493.056L1277.44 490.227ZM1260.54 507.134L1249.27 518.404L1252.1 521.233L1263.37 509.962L1260.54 507.134ZM1238 529.675L1226.73 540.946L1229.55 543.775L1240.82 532.504L1238 529.675ZM1215.45 552.217L1204.18 563.488L1207.01 566.316L1218.28 555.045L1215.45 552.217ZM1192.91 574.759L1181.64 586.029L1184.47 588.858L1195.74 577.587L1192.91 574.759ZM1170.37 597.3L1159.1 608.571L1161.93 611.399L1173.2 600.129L1170.37 597.3ZM1147.83 619.842L1136.56 631.113L1139.39 633.941L1150.66 622.67L1147.83 619.842ZM1125.29 642.383L1114.02 653.654L1116.85 656.483L1128.12 645.212L1125.29 642.383ZM1102.75 664.925L1091.48 676.196L1094.3 679.024L1105.58 667.754L1102.75 664.925ZM1080.2 687.467L1068.93 698.738L1071.76 701.566L1083.03 690.295L1080.2 687.467ZM1057.66 710.008L1046.39 721.279L1049.22 724.108L1060.49 712.837L1057.66 710.008ZM1035.12 732.55L1023.85 743.821L1026.68 746.649L1037.95 735.379L1035.12 732.55ZM1012.58 755.092L1001.31 766.363L1004.14 769.191L1015.41 757.92L1012.58 755.092ZM990.038 777.633L978.767 788.904L981.596 791.733L992.867 780.462L990.038 777.633ZM967.497 800.175L956.226 811.446L959.054 814.274L970.325 803.004L967.497 800.175ZM944.955 822.717L933.684 833.988L936.513 836.816L947.783 825.545L944.955 822.717ZM922.413 845.258L916.778 850.894L919.606 853.722L925.242 848.087L922.413 845.258ZM1280.86 491.642C1280.86 490.537 1279.96 489.642 1278.86 489.642L1260.86 489.642C1259.75 489.642 1258.86 490.537 1258.86 491.642C1258.86 492.746 1259.75 493.642 1260.86 493.642L1276.86 493.642L1276.86 509.642C1276.86 510.746 1277.75 511.642 1278.86 511.642C1279.96 511.642 1280.86 510.746 1280.86 509.642L1280.86 491.642ZM916.192 852.308C916.192 853.412 917.088 854.308 918.192 854.308L936.192 854.308C937.297 854.308 938.192 853.412 938.192 852.308C938.192 851.203 937.297 850.308 936.192 850.308L920.192 850.308L920.192 834.308C920.192 833.203 919.297 832.308 918.192 832.308C917.088 832.308 916.192 833.203 916.192 834.308L916.192 852.308ZM1277.44 490.227L1271.81 495.863L1274.64 498.691L1280.27 493.056L1277.44 490.227ZM1260.54 507.134L1249.27 518.404L1252.1 521.233L1263.37 509.962L1260.54 507.134ZM1238 529.675L1226.73 540.946L1229.55 543.775L1240.82 532.504L1238 529.675ZM1215.45 552.217L1204.18 563.488L1207.01 566.316L1218.28 555.045L1215.45 552.217ZM1192.91 574.759L1181.64 586.029L1184.47 588.858L1195.74 577.587L1192.91 574.759ZM1170.37 597.3L1159.1 608.571L1161.93 611.399L1173.2 600.129L1170.37 597.3ZM1147.83 619.842L1136.56 631.113L1139.39 633.941L1150.66 622.67L1147.83 619.842ZM1125.29 642.383L1114.02 653.654L1116.85 656.483L1128.12 645.212L1125.29 642.383ZM1102.75 664.925L1091.48 676.196L1094.3 679.024L1105.58 667.754L1102.75 664.925ZM1080.2 687.467L1068.93 698.738L1071.76 701.566L1083.03 690.295L1080.2 687.467ZM1057.66 710.008L1046.39 721.279L1049.22 724.108L1060.49 712.837L1057.66 710.008ZM1035.12 732.55L1023.85 743.821L1026.68 746.649L1037.95 735.379L1035.12 732.55ZM1012.58 755.092L1001.31 766.363L1004.14 769.191L1015.41 757.92L1012.58 755.092ZM990.038 777.633L978.767 788.904L981.596 791.733L992.867 780.462L990.038 777.633ZM967.497 800.175L956.226 811.446L959.054 814.274L970.325 803.004L967.497 800.175ZM944.955 822.717L933.684 833.988L936.513 836.816L947.783 825.545L944.955 822.717ZM922.413 845.258L916.778 850.894L919.606 853.722L925.242 848.087L922.413 845.258Z" fill="#B0B0B0"/>
<path d="M918.192 916.692C917.088 916.692 916.192 917.588 916.192 918.692L916.192 936.692C916.192 937.797 917.088 938.692 918.192 938.692C919.297 938.692 920.192 937.797 920.192 936.692L920.192 920.692L936.192 920.692C937.297 920.692 938.192 919.797 938.192 918.692C938.192 917.588 937.297 916.692 936.192 916.692L918.192 916.692ZM1278.86 1281.36C1279.96 1281.36 1280.86 1280.46 1280.86 1279.36L1280.86 1261.36C1280.86 1260.25 1279.96 1259.36 1278.86 1259.36C1277.75 1259.36 1276.86 1260.25 1276.86 1261.36L1276.86 1277.36L1260.86 1277.36C1259.75 1277.36 1258.86 1278.25 1258.86 1279.36C1258.86 1280.46 1259.75 1281.36 1260.86 1281.36L1278.86 1281.36ZM916.778 920.106L922.413 925.742L925.242 922.913L919.606 917.278L916.778 920.106ZM933.684 937.013L944.955 948.283L947.783 945.455L936.513 934.184L933.684 937.013ZM956.226 959.554L967.497 970.825L970.325 967.997L959.054 956.726L956.226 959.554ZM978.767 982.096L990.038 993.367L992.867 990.538L981.596 979.267L978.767 982.096ZM1001.31 1004.64L1012.58 1015.91L1015.41 1013.08L1004.14 1001.81L1001.31 1004.64ZM1023.85 1027.18L1035.12 1038.45L1037.95 1035.62L1026.68 1024.35L1023.85 1027.18ZM1046.39 1049.72L1057.66 1060.99L1060.49 1058.16L1049.22 1046.89L1046.39 1049.72ZM1068.93 1072.26L1080.2 1083.53L1083.03 1080.7L1071.76 1069.43L1068.93 1072.26ZM1091.48 1094.8L1102.75 1106.07L1105.57 1103.25L1094.3 1091.98L1091.48 1094.8ZM1114.02 1117.35L1125.29 1128.62L1128.12 1125.79L1116.85 1114.52L1114.02 1117.35ZM1136.56 1139.89L1147.83 1151.16L1150.66 1148.33L1139.39 1137.06L1136.56 1139.89ZM1159.1 1162.43L1170.37 1173.7L1173.2 1170.87L1161.93 1159.6L1159.1 1162.43ZM1181.64 1184.97L1192.91 1196.24L1195.74 1193.41L1184.47 1182.14L1181.64 1184.97ZM1204.18 1207.51L1215.45 1218.78L1218.28 1215.95L1207.01 1204.68L1204.18 1207.51ZM1226.73 1230.05L1238 1241.32L1240.82 1238.5L1229.55 1227.23L1226.73 1230.05ZM1249.27 1252.6L1260.54 1263.87L1263.37 1261.04L1252.1 1249.77L1249.27 1252.6ZM1271.81 1275.14L1277.44 1280.77L1280.27 1277.94L1274.64 1272.31L1271.81 1275.14ZM918.192 916.692C917.088 916.692 916.192 917.588 916.192 918.692L916.192 936.692C916.192 937.797 917.088 938.692 918.192 938.692C919.297 938.692 920.192 937.797 920.192 936.692L920.192 920.692L936.192 920.692C937.297 920.692 938.192 919.797 938.192 918.692C938.192 917.588 937.297 916.692 936.192 916.692L918.192 916.692ZM1278.86 1281.36C1279.96 1281.36 1280.86 1280.46 1280.86 1279.36L1280.86 1261.36C1280.86 1260.25 1279.96 1259.36 1278.86 1259.36C1277.75 1259.36 1276.86 1260.25 1276.86 1261.36L1276.86 1277.36L1260.86 1277.36C1259.75 1277.36 1258.86 1278.25 1258.86 1279.36C1258.86 1280.46 1259.75 1281.36 1260.86 1281.36L1278.86 1281.36ZM916.778 920.106L922.413 925.742L925.242 922.913L919.606 917.278L916.778 920.106ZM933.684 937.013L944.955 948.283L947.783 945.455L936.513 934.184L933.684 937.013ZM956.226 959.554L967.497 970.825L970.325 967.997L959.054 956.726L956.226 959.554ZM978.767 982.096L990.038 993.367L992.867 990.538L981.596 979.267L978.767 982.096ZM1001.31 1004.64L1012.58 1015.91L1015.41 1013.08L1004.14 1001.81L1001.31 1004.64ZM1023.85 1027.18L1035.12 1038.45L1037.95 1035.62L1026.68 1024.35L1023.85 1027.18ZM1046.39 1049.72L1057.66 1060.99L1060.49 1058.16L1049.22 1046.89L1046.39 1049.72ZM1068.93 1072.26L1080.2 1083.53L1083.03 1080.7L1071.76 1069.43L1068.93 1072.26ZM1091.48 1094.8L1102.75 1106.07L1105.57 1103.25L1094.3 1091.98L1091.48 1094.8ZM1114.02 1117.35L1125.29 1128.62L1128.12 1125.79L1116.85 1114.52L1114.02 1117.35ZM1136.56 1139.89L1147.83 1151.16L1150.66 1148.33L1139.39 1137.06L1136.56 1139.89ZM1159.1 1162.43L1170.37 1173.7L1173.2 1170.87L1161.93 1159.6L1159.1 1162.43ZM1181.64 1184.97L1192.91 1196.24L1195.74 1193.41L1184.47 1182.14L1181.64 1184.97ZM1204.18 1207.51L1215.45 1218.78L1218.28 1215.95L1207.01 1204.68L1204.18 1207.51ZM1226.73 1230.05L1238 1241.32L1240.82 1238.5L1229.55 1227.23L1226.73 1230.05ZM1249.27 1252.6L1260.54 1263.87L1263.37 1261.04L1252.1 1249.77L1249.27 1252.6ZM1271.81 1275.14L1277.44 1280.77L1280.27 1277.94L1274.64 1272.31L1271.81 1275.14Z" fill="#B0B0B0"/>
<path d="M491.142 489.642C490.037 489.642 489.142 490.537 489.142 491.642L489.142 509.642C489.142 510.746 490.037 511.642 491.142 511.642C492.246 511.642 493.142 510.746 493.142 509.642L493.142 493.642L509.142 493.642C510.246 493.642 511.142 492.746 511.142 491.642C511.142 490.537 510.246 489.642 509.142 489.642L491.142 489.642ZM851.808 854.308C852.913 854.308 853.808 853.412 853.808 852.308L853.808 834.308C853.808 833.203 852.913 832.308 851.808 832.308C850.703 832.308 849.808 833.203 849.808 834.308L849.808 850.308L833.808 850.308C832.703 850.308 831.808 851.203 831.808 852.308C831.808 853.412 832.703 854.308 833.808 854.308L851.808 854.308ZM489.727 493.056L495.363 498.691L498.191 495.863L492.556 490.227L489.727 493.056ZM506.634 509.962L517.904 521.233L520.733 518.404L509.462 507.134L506.634 509.962ZM529.175 532.504L540.446 543.775L543.275 540.946L532.004 529.675L529.175 532.504ZM551.717 555.045L562.988 566.316L565.816 563.488L554.545 552.217L551.717 555.045ZM574.259 577.587L585.529 588.858L588.358 586.029L577.087 574.759L574.259 577.587ZM596.8 600.129L608.071 611.399L610.899 608.571L599.629 597.3L596.8 600.129ZM619.342 622.67L630.613 633.941L633.441 631.113L622.17 619.842L619.342 622.67ZM641.883 645.212L653.154 656.483L655.983 653.654L644.712 642.383L641.883 645.212ZM664.425 667.754L675.696 679.024L678.524 676.196L667.254 664.925L664.425 667.754ZM686.967 690.295L698.238 701.566L701.066 698.738L689.795 687.467L686.967 690.295ZM709.508 712.837L720.779 724.108L723.608 721.279L712.337 710.008L709.508 712.837ZM732.05 735.378L743.321 746.649L746.149 743.821L734.879 732.55L732.05 735.378ZM754.592 757.92L765.863 769.191L768.691 766.363L757.42 755.092L754.592 757.92ZM777.133 780.462L788.404 791.733L791.233 788.904L779.962 777.633L777.133 780.462ZM799.675 803.003L810.946 814.274L813.774 811.446L802.504 800.175L799.675 803.003ZM822.217 825.545L833.488 836.816L836.316 833.987L825.045 822.717L822.217 825.545ZM844.758 848.087L850.394 853.722L853.222 850.894L847.587 845.258L844.758 848.087ZM491.142 489.642C490.037 489.642 489.142 490.537 489.142 491.642L489.142 509.642C489.142 510.746 490.037 511.642 491.142 511.642C492.246 511.642 493.142 510.746 493.142 509.642L493.142 493.642L509.142 493.642C510.246 493.642 511.142 492.746 511.142 491.642C511.142 490.537 510.246 489.642 509.142 489.642L491.142 489.642ZM851.808 854.308C852.913 854.308 853.808 853.412 853.808 852.308L853.808 834.308C853.808 833.203 852.913 832.308 851.808 832.308C850.703 832.308 849.808 833.203 849.808 834.308L849.808 850.308L833.808 850.308C832.703 850.308 831.808 851.203 831.808 852.308C831.808 853.412 832.703 854.308 833.808 854.308L851.808 854.308ZM489.727 493.056L495.363 498.691L498.191 495.863L492.556 490.227L489.727 493.056ZM506.634 509.962L517.904 521.233L520.733 518.404L509.462 507.134L506.634 509.962ZM529.175 532.504L540.446 543.775L543.275 540.946L532.004 529.675L529.175 532.504ZM551.717 555.045L562.988 566.316L565.816 563.488L554.545 552.217L551.717 555.045ZM574.259 577.587L585.529 588.858L588.358 586.029L577.087 574.759L574.259 577.587ZM596.8 600.129L608.071 611.399L610.899 608.571L599.629 597.3L596.8 600.129ZM619.342 622.67L630.613 633.941L633.441 631.113L622.17 619.842L619.342 622.67ZM641.883 645.212L653.154 656.483L655.983 653.654L644.712 642.383L641.883 645.212ZM664.425 667.754L675.696 679.024L678.524 676.196L667.254 664.925L664.425 667.754ZM686.967 690.295L698.238 701.566L701.066 698.738L689.795 687.467L686.967 690.295ZM709.508 712.837L720.779 724.108L723.608 721.279L712.337 710.008L709.508 712.837ZM732.05 735.378L743.321 746.649L746.149 743.821L734.879 732.55L732.05 735.378ZM754.592 757.92L765.863 769.191L768.691 766.363L757.42 755.092L754.592 757.92ZM777.133 780.462L788.404 791.733L791.233 788.904L779.962 777.633L777.133 780.462ZM799.675 803.003L810.946 814.274L813.774 811.446L802.504 800.175L799.675 803.003ZM822.217 825.545L833.488 836.816L836.316 833.987L825.045 822.717L822.217 825.545ZM844.758 848.087L850.394 853.722L853.222 850.894L847.587 845.258L844.758 848.087Z" fill="#B0B0B0"/>
<circle cx="1476.5" cy="885.5" r="34" transform="rotate(90 1476.5 885.5)" fill="#121212"/>
<circle cx="885" cy="294" r="34" fill="#121212"/>
<circle cx="885" cy="1477" r="34" fill="#121212"/>
<circle cx="1303.25" cy="467.246" r="34" transform="rotate(45 1303.25 467.246)" fill="#121212"/>
<circle cx="293.5" cy="885.5" r="34" transform="rotate(90 293.5 885.5)" fill="#121212"/>
<circle cx="466.746" cy="1303.75" r="34" transform="rotate(45 466.746 1303.75)" fill="#121212"/>
<circle cx="1303.25" cy="1303.75" r="34" transform="rotate(135 1303.25 1303.75)" fill="#121212"/>
<circle cx="466.746" cy="467.246" r="34" transform="rotate(135 466.746 467.246)" fill="#121212"/>
<path d="M881.32 307V287.72H875.96V283.08C877.107 283.08 878.093 283.013 878.92 282.88C879.747 282.72 880.453 282.48 881.04 282.16C881.627 281.813 882.107 281.36 882.48 280.8C882.853 280.213 883.16 279.507 883.4 278.68H888.76V307H881.32Z" fill="#FF0000"/>
<path d="M458 462.28C458.027 460.84 458.16 459.533 458.4 458.36C458.64 457.16 459.093 456.147 459.76 455.32C460.427 454.467 461.36 453.813 462.56 453.36C463.76 452.907 465.333 452.68 467.28 452.68C469.147 452.68 470.667 452.88 471.84 453.28C473.013 453.68 473.933 454.24 474.6 454.96C475.293 455.653 475.76 456.467 476 457.4C476.267 458.333 476.4 459.333 476.4 460.4C476.4 462.32 476.08 463.933 475.44 465.24C474.8 466.547 473.947 467.733 472.88 468.8L468.48 473.08C468.16 473.4 467.8 473.76 467.4 474.16C467.027 474.56 466.773 474.973 466.64 475.4H476.4V481H457.76C457.76 479 458.053 477.12 458.64 475.36C459.253 473.573 460.373 471.84 462 470.16L466.96 465.12C467.68 464.4 468.187 463.72 468.48 463.08C468.8 462.413 468.96 461.547 468.96 460.48C468.96 459.28 468.787 458.453 468.44 458C468.093 457.547 467.627 457.32 467.04 457.32C466.773 457.32 466.52 457.373 466.28 457.48C466.04 457.56 465.813 457.733 465.6 458C465.413 458.267 465.253 458.653 465.12 459.16C465.013 459.64 464.96 460.28 464.96 461.08V462.28H458Z" fill="#FF0000"/>
<path d="M283.08 880.24C283.16 877.28 283.933 875.12 285.4 873.76C286.867 872.373 289.053 871.68 291.96 871.68C293.693 871.68 295.133 871.853 296.28 872.2C297.427 872.547 298.333 873.053 299 873.72C299.693 874.387 300.173 875.213 300.44 876.2C300.733 877.16 300.88 878.267 300.88 879.52C300.88 880.08 300.813 880.667 300.68 881.28C300.547 881.867 300.32 882.427 300 882.96C299.707 883.467 299.307 883.92 298.8 884.32C298.293 884.72 297.667 885 296.92 885.16V885.24C298.573 885.56 299.733 886.293 300.4 887.44C301.067 888.56 301.4 889.893 301.4 891.44C301.4 894.64 300.627 896.947 299.08 898.36C297.533 899.747 295.227 900.44 292.16 900.44C290.56 900.44 289.16 900.307 287.96 900.04C286.787 899.773 285.813 899.293 285.04 898.6C284.267 897.907 283.693 896.987 283.32 895.84C282.947 894.667 282.76 893.227 282.76 891.52H289.72C289.72 892.32 289.76 892.987 289.84 893.52C289.947 894.053 290.08 894.507 290.24 894.88C290.56 895.573 291.12 895.92 291.92 895.92C292.347 895.92 292.693 895.867 292.96 895.76C293.227 895.627 293.427 895.4 293.56 895.08C293.72 894.733 293.827 894.28 293.88 893.72C293.933 893.133 293.96 892.4 293.96 891.52C293.96 890.133 293.733 889.2 293.28 888.72C292.853 888.24 292.173 888 291.24 888H289.36V883.36H290.44C291 883.36 291.48 883.307 291.88 883.2C292.28 883.093 292.613 882.893 292.88 882.6C293.147 882.307 293.347 881.907 293.48 881.4C293.613 880.867 293.68 880.187 293.68 879.36C293.68 878.16 293.52 877.36 293.2 876.96C292.907 876.533 292.44 876.32 291.8 876.32C291.08 876.32 290.56 876.6 290.24 877.16C289.947 877.72 289.8 878.747 289.8 880.24H283.08Z" fill="#FF0000"/>
<path d="M457.64 1307.12L466.6 1290.24H474.68V1307.36H477.16V1312.72H474.68V1318H467.72V1312.72H457.64V1307.12ZM467.96 1307.36V1297.92H467.88L463.24 1307.36H467.96Z" fill="#FF0000"/>
<path d="M876.64 1463.24H893.08V1468.84H882.32L882 1473.6C882.693 1472.96 883.467 1472.45 884.32 1472.08C885.2 1471.71 886.173 1471.52 887.24 1471.52C889.56 1471.52 891.32 1472.25 892.52 1473.72C893.72 1475.19 894.32 1477.45 894.32 1480.52C894.32 1482.39 894.16 1484.01 893.84 1485.4C893.547 1486.76 893.04 1487.89 892.32 1488.8C891.6 1489.71 890.64 1490.37 889.44 1490.8C888.267 1491.23 886.8 1491.44 885.04 1491.44C881.76 1491.44 879.387 1490.75 877.92 1489.36C876.48 1487.97 875.76 1486 875.76 1483.44V1482.52H882.72V1483.48C882.72 1484.81 882.893 1485.72 883.24 1486.2C883.613 1486.68 884.12 1486.92 884.76 1486.92C885.133 1486.92 885.44 1486.87 885.68 1486.76C885.947 1486.63 886.173 1486.35 886.36 1485.92C886.547 1485.49 886.68 1484.88 886.76 1484.08C886.84 1483.28 886.88 1482.2 886.88 1480.84C886.88 1479.24 886.693 1478.13 886.32 1477.52C885.973 1476.88 885.453 1476.56 884.76 1476.56C884.147 1476.56 883.653 1476.75 883.28 1477.12C882.907 1477.49 882.72 1478.11 882.72 1478.96H876L876.64 1463.24Z" fill="#FF0000"/>
<path d="M1301.44 1309.28C1301.44 1311.09 1301.59 1312.32 1301.88 1312.96C1302.2 1313.6 1302.75 1313.92 1303.52 1313.92C1304.21 1313.92 1304.73 1313.6 1305.08 1312.96C1305.43 1312.32 1305.6 1311.09 1305.6 1309.28C1305.6 1307.47 1305.44 1306.24 1305.12 1305.6C1304.83 1304.96 1304.29 1304.64 1303.52 1304.64C1302.83 1304.64 1302.31 1304.96 1301.96 1305.6C1301.61 1306.24 1301.44 1307.47 1301.44 1309.28ZM1305.52 1296.96C1305.49 1296 1305.31 1295.31 1304.96 1294.88C1304.67 1294.51 1304.17 1294.32 1303.48 1294.32C1302.95 1294.32 1302.47 1294.55 1302.04 1295C1301.64 1295.43 1301.44 1296.09 1301.44 1297V1301.52H1301.52C1301.84 1300.83 1302.43 1300.28 1303.28 1299.88C1304.16 1299.48 1305.16 1299.28 1306.28 1299.28C1307.29 1299.28 1308.21 1299.43 1309.04 1299.72C1309.87 1299.99 1310.57 1300.45 1311.16 1301.12C1311.77 1301.76 1312.24 1302.64 1312.56 1303.76C1312.88 1304.85 1313.04 1306.23 1313.04 1307.88C1313.04 1309.8 1312.83 1311.44 1312.4 1312.8C1312 1314.16 1311.39 1315.27 1310.56 1316.12C1309.76 1316.95 1308.77 1317.55 1307.6 1317.92C1306.43 1318.27 1305.08 1318.44 1303.56 1318.44C1301.93 1318.44 1300.51 1318.27 1299.28 1317.92C1298.05 1317.55 1297.03 1316.91 1296.2 1316C1295.4 1315.07 1294.79 1313.84 1294.36 1312.32C1293.96 1310.77 1293.76 1308.84 1293.76 1306.52V1303.36C1293.76 1301.17 1293.87 1299.24 1294.08 1297.56C1294.32 1295.85 1294.79 1294.43 1295.48 1293.28C1296.17 1292.11 1297.16 1291.21 1298.44 1290.6C1299.72 1289.99 1301.41 1289.68 1303.52 1289.68C1305.33 1289.68 1306.81 1289.88 1307.96 1290.28C1309.13 1290.68 1310.05 1291.23 1310.72 1291.92C1311.39 1292.59 1311.84 1293.36 1312.08 1294.24C1312.35 1295.12 1312.48 1296.03 1312.48 1296.96H1305.52Z" fill="#FF0000"/>
<path d="M1467 871.24H1485.48V876.8C1484.49 878.347 1483.57 880.04 1482.72 881.88C1481.89 883.693 1481.15 885.573 1480.48 887.52C1479.84 889.467 1479.31 891.427 1478.88 893.4C1478.48 895.347 1478.21 897.213 1478.08 899H1470.4C1470.59 897.187 1470.89 895.333 1471.32 893.44C1471.75 891.547 1472.28 889.68 1472.92 887.84C1473.59 885.973 1474.37 884.16 1475.28 882.4C1476.19 880.613 1477.23 878.92 1478.4 877.32H1467V871.24Z" fill="#FF0000"/>
<path d="M1300.2 472.72C1300.2 474.4 1300.39 475.52 1300.76 476.08C1301.16 476.64 1301.71 476.92 1302.4 476.92C1303.09 476.92 1303.63 476.64 1304 476.08C1304.4 475.52 1304.6 474.4 1304.6 472.72C1304.6 471.067 1304.4 469.96 1304 469.4C1303.63 468.84 1303.09 468.56 1302.4 468.56C1301.71 468.56 1301.16 468.84 1300.76 469.4C1300.39 469.96 1300.2 471.067 1300.2 472.72ZM1300.48 460.72C1300.48 461.413 1300.53 461.987 1300.64 462.44C1300.75 462.893 1300.88 463.253 1301.04 463.52C1301.23 463.76 1301.43 463.933 1301.64 464.04C1301.88 464.12 1302.13 464.16 1302.4 464.16C1302.93 464.16 1303.39 463.933 1303.76 463.48C1304.13 463.027 1304.32 462.107 1304.32 460.72C1304.32 460.027 1304.27 459.467 1304.16 459.04C1304.05 458.587 1303.91 458.24 1303.72 458C1303.56 457.733 1303.36 457.56 1303.12 457.48C1302.91 457.373 1302.67 457.32 1302.4 457.32C1302.13 457.32 1301.88 457.373 1301.64 457.48C1301.43 457.56 1301.23 457.733 1301.04 458C1300.88 458.24 1300.75 458.587 1300.64 459.04C1300.53 459.467 1300.48 460.027 1300.48 460.72ZM1302.4 481.44C1300.88 481.44 1299.52 481.32 1298.32 481.08C1297.15 480.84 1296.15 480.387 1295.32 479.72C1294.49 479.027 1293.85 478.107 1293.4 476.96C1292.97 475.813 1292.76 474.36 1292.76 472.6C1292.76 470.867 1293.15 469.4 1293.92 468.2C1294.72 467 1295.91 466.293 1297.48 466.08V466C1296.65 465.813 1295.96 465.533 1295.4 465.16C1294.87 464.76 1294.44 464.307 1294.12 463.8C1293.8 463.267 1293.57 462.707 1293.44 462.12C1293.33 461.507 1293.28 460.893 1293.28 460.28C1293.28 459.16 1293.44 458.133 1293.76 457.2C1294.11 456.267 1294.64 455.467 1295.36 454.8C1296.11 454.133 1297.05 453.613 1298.2 453.24C1299.37 452.867 1300.77 452.68 1302.4 452.68C1304.05 452.68 1305.45 452.867 1306.6 453.24C1307.75 453.613 1308.68 454.133 1309.4 454.8C1310.15 455.467 1310.68 456.267 1311 457.2C1311.35 458.133 1311.52 459.16 1311.52 460.28C1311.52 460.893 1311.45 461.507 1311.32 462.12C1311.21 462.707 1311 463.267 1310.68 463.8C1310.36 464.307 1309.93 464.76 1309.4 465.16C1308.87 465.533 1308.17 465.813 1307.32 466V466.08C1308.17 466.24 1308.89 466.52 1309.48 466.92C1310.09 467.32 1310.59 467.813 1310.96 468.4C1311.33 468.96 1311.6 469.6 1311.76 470.32C1311.95 471.04 1312.04 471.8 1312.04 472.6C1312.04 474.36 1311.81 475.813 1311.36 476.96C1310.93 478.107 1310.31 479.027 1309.48 479.72C1308.68 480.387 1307.68 480.84 1306.48 481.08C1305.28 481.32 1303.92 481.44 1302.4 481.44Z" fill="#FF0000"/>
</svg>
